<svg version="1.1" id="Layer_1" xmlns="http://www.w3.org/2000/svg" xmlns:xlink="http://www.w3.org/1999/xlink" x="0px" y="0px"
	 width="100%" viewBox="0 0 500 500" enable-background="new 0 0 500 500" xml:space="preserve">
<path fill="#8C52FF" opacity="1.000000" stroke="none" 
	d="
M296.000000,501.000000 
	C197.333359,501.000000 99.166710,501.000000 1.000053,501.000000 
	C1.000035,334.333405 1.000035,167.666794 1.000018,1.000142 
	C167.666565,1.000095 334.333130,1.000095 500.999756,1.000047 
	C500.999847,167.666519 500.999847,334.333038 500.999939,500.999786 
	C432.833344,501.000000 364.666656,501.000000 296.000000,501.000000 
M100.001007,284.495911 
	C100.001007,264.056213 100.001007,243.616516 100.001007,222.943542 
	C106.625610,222.943542 112.657982,222.943542 119.301285,222.943542 
	C119.301285,248.730469 119.301285,274.122009 119.301285,299.565552 
	C126.116096,299.565552 132.308182,299.565552 138.454346,299.565552 
	C138.615479,298.650696 138.774872,298.166992 138.775269,297.683167 
	C138.795807,272.867126 138.970474,248.049545 138.739960,223.235718 
	C138.626175,210.987274 130.324677,203.165497 117.962303,203.089737 
	C99.808784,202.978470 81.653954,203.015427 63.499939,203.072464 
	C49.659565,203.115952 41.942184,210.913651 41.918560,224.847717 
	C41.879025,248.164978 41.901348,271.482330 41.918278,294.799652 
	C41.919441,296.403564 42.092014,298.007385 42.186054,299.631653 
	C48.671154,299.631653 54.726467,299.631653 61.343922,299.631653 
	C61.343922,273.865570 61.343922,248.468094 61.343922,222.540878 
	C66.214165,222.540878 70.541924,222.824661 74.815369,222.464310 
	C79.468559,222.071930 80.744492,223.827606 80.700996,228.375229 
	C80.492348,250.191574 80.608078,272.011017 80.608589,293.829346 
	C80.608635,295.771271 80.608597,297.713165 80.608597,299.687134 
	C87.387276,299.687134 93.470123,299.687134 100.001076,299.687134 
	C100.001076,294.750946 100.001076,290.122437 100.001007,284.495911 
M302.500000,241.923752 
	C293.559570,241.923752 284.619141,241.923752 275.512817,241.923752 
	C275.512817,235.200409 275.512817,229.142517 275.512817,222.323715 
	C301.415039,222.323715 326.953827,222.323715 352.381226,222.323715 
	C352.381226,215.482117 352.381226,209.416565 352.381226,203.278168 
	C350.787537,203.190079 349.630524,203.070847 348.473419,203.070312 
	C324.646271,203.059296 300.818939,203.001572 276.992096,203.085327 
	C263.792847,203.131729 255.967789,211.094788 255.924911,224.378357 
	C255.867386,242.206879 255.887878,260.035736 255.916367,277.864410 
	C255.939651,292.427917 263.521606,299.982971 278.117950,299.996277 
	C301.111969,300.017242 324.105988,300.007080 347.100006,299.991577 
	C348.865540,299.990387 350.630920,299.842834 352.821320,299.744171 
	C352.821320,294.803986 352.543640,290.312836 352.900665,285.872711 
	C353.247040,281.564972 351.539703,280.594208 347.505798,280.625793 
	C325.512848,280.798004 303.517883,280.707306 281.523590,280.707031 
	C279.581512,280.707001 277.639404,280.707031 275.452454,280.707031 
	C275.452454,273.910675 275.452454,267.847198 275.452454,261.076721 
	C301.286926,261.076721 326.820587,261.076721 352.386017,261.076721 
	C352.386017,254.318710 352.386017,248.278809 352.386017,241.923996 
	C335.800781,241.923996 319.650391,241.923996 302.500000,241.923752 
M245.825638,230.531311 
	C245.825348,228.865158 245.832352,227.198959 245.823639,225.532837 
	C245.746674,210.805237 238.006271,203.081635 223.246353,203.063034 
	C205.917633,203.041214 188.588852,203.037872 171.260162,203.063568 
	C156.624542,203.085281 148.941147,210.656082 148.914825,225.102097 
	C148.882324,242.930634 148.868286,260.759399 148.919189,278.587860 
	C148.957962,292.168671 156.752747,299.955231 170.335159,299.992065 
	C187.997025,300.039948 205.659103,300.016754 223.321075,300.000092 
	C238.127014,299.986084 245.783310,292.346191 245.817551,277.509338 
	C245.852936,262.180176 245.825546,246.850830 245.825638,230.531311 
M367.637390,203.061584 
	C365.871063,203.061584 364.104736,203.061584 361.909149,203.061584 
	C361.909149,205.406540 361.909119,207.043060 361.909119,208.679581 
	C361.909515,231.837234 361.884796,254.994934 361.919617,278.152557 
	C361.940948,292.339996 369.638641,299.977203 383.904205,299.993469 
	C407.061829,300.019928 430.219543,300.005219 453.377197,299.991058 
	C454.998138,299.990051 456.619019,299.849854 458.468597,299.763733 
	C458.468597,293.374146 458.468597,287.320496 458.468597,280.539917 
	C432.576477,280.539917 407.028107,280.539917 380.980774,280.539917 
	C380.980774,254.399261 380.980774,228.984009 380.980774,203.061615 
	C376.519165,203.061615 372.559052,203.061615 367.637390,203.061584 
z"/>
<path fill="#FEFDFF" opacity="1.000000" stroke="none" 
	d="
M100.001038,284.994934 
	C100.001076,290.122437 100.001076,294.750946 100.001076,299.687134 
	C93.470123,299.687134 87.387276,299.687134 80.608597,299.687134 
	C80.608597,297.713165 80.608635,295.771271 80.608589,293.829346 
	C80.608078,272.011017 80.492348,250.191574 80.700996,228.375229 
	C80.744492,223.827606 79.468559,222.071930 74.815369,222.464310 
	C70.541924,222.824661 66.214165,222.540878 61.343922,222.540878 
	C61.343922,248.468094 61.343922,273.865570 61.343922,299.631653 
	C54.726467,299.631653 48.671154,299.631653 42.186054,299.631653 
	C42.092014,298.007385 41.919441,296.403564 41.918278,294.799652 
	C41.901348,271.482330 41.879025,248.164978 41.918560,224.847717 
	C41.942184,210.913651 49.659565,203.115952 63.499939,203.072464 
	C81.653954,203.015427 99.808784,202.978470 117.962303,203.089737 
	C130.324677,203.165497 138.626175,210.987274 138.739960,223.235718 
	C138.970474,248.049545 138.795807,272.867126 138.775269,297.683167 
	C138.774872,298.166992 138.615479,298.650696 138.454346,299.565552 
	C132.308182,299.565552 126.116096,299.565552 119.301285,299.565552 
	C119.301285,274.122009 119.301285,248.730469 119.301285,222.943542 
	C112.657982,222.943542 106.625610,222.943542 100.001007,222.943542 
	C100.001007,243.616516 100.001007,264.056213 100.001038,284.994934 
z"/>
<path fill="#FEFEFF" opacity="1.000000" stroke="none" 
	d="
M303.000000,241.923874 
	C319.650391,241.923996 335.800781,241.923996 352.386017,241.923996 
	C352.386017,248.278809 352.386017,254.318710 352.386017,261.076721 
	C326.820587,261.076721 301.286926,261.076721 275.452454,261.076721 
	C275.452454,267.847198 275.452454,273.910675 275.452454,280.707031 
	C277.639404,280.707031 279.581512,280.707001 281.523590,280.707031 
	C303.517883,280.707306 325.512848,280.798004 347.505798,280.625793 
	C351.539703,280.594208 353.247040,281.564972 352.900665,285.872711 
	C352.543640,290.312836 352.821320,294.803986 352.821320,299.744171 
	C350.630920,299.842834 348.865540,299.990387 347.100006,299.991577 
	C324.105988,300.007080 301.111969,300.017242 278.117950,299.996277 
	C263.521606,299.982971 255.939651,292.427917 255.916367,277.864410 
	C255.887878,260.035736 255.867386,242.206879 255.924911,224.378357 
	C255.967789,211.094788 263.792847,203.131729 276.992096,203.085327 
	C300.818939,203.001572 324.646271,203.059296 348.473419,203.070312 
	C349.630524,203.070847 350.787537,203.190079 352.381226,203.278168 
	C352.381226,209.416565 352.381226,215.482117 352.381226,222.323715 
	C326.953827,222.323715 301.415039,222.323715 275.512817,222.323715 
	C275.512817,229.142517 275.512817,235.200409 275.512817,241.923752 
	C284.619141,241.923752 293.559570,241.923752 303.000000,241.923874 
z"/>
<path fill="#FEFDFF" opacity="1.000000" stroke="none" 
	d="
M245.825623,231.026428 
	C245.825546,246.850830 245.852936,262.180176 245.817551,277.509338 
	C245.783310,292.346191 238.127014,299.986084 223.321075,300.000092 
	C205.659103,300.016754 187.997025,300.039948 170.335159,299.992065 
	C156.752747,299.955231 148.957962,292.168671 148.919189,278.587860 
	C148.868286,260.759399 148.882324,242.930634 148.914825,225.102097 
	C148.941147,210.656082 156.624542,203.085281 171.260162,203.063568 
	C188.588852,203.037872 205.917633,203.041214 223.246353,203.063034 
	C238.006271,203.081635 245.746674,210.805237 245.823639,225.532837 
	C245.832352,227.198959 245.825348,228.865158 245.825623,231.026428 
M186.501053,280.716797 
	C199.599350,280.716797 212.697647,280.716797 225.998169,280.716797 
	C225.998169,260.989929 225.998169,242.052414 225.998169,222.830444 
	C206.673889,222.830444 187.619431,222.830444 168.408020,222.830444 
	C168.408020,242.155136 168.408020,261.079376 168.408020,280.716644 
	C174.276215,280.716644 179.889114,280.716644 186.501053,280.716797 
z"/>
<path fill="#FFFEFF" opacity="1.000000" stroke="none" 
	d="
M368.118164,203.061600 
	C372.559052,203.061615 376.519165,203.061615 380.980774,203.061615 
	C380.980774,228.984009 380.980774,254.399261 380.980774,280.539917 
	C407.028107,280.539917 432.576477,280.539917 458.468597,280.539917 
	C458.468597,287.320496 458.468597,293.374146 458.468597,299.763733 
	C456.619019,299.849854 454.998138,299.990051 453.377197,299.991058 
	C430.219543,300.005219 407.061829,300.019928 383.904205,299.993469 
	C369.638641,299.977203 361.940948,292.339996 361.919617,278.152557 
	C361.884796,254.994934 361.909515,231.837234 361.909119,208.679581 
	C361.909119,207.043060 361.909149,205.406540 361.909149,203.061584 
	C364.104736,203.061584 365.871063,203.061584 368.118164,203.061600 
z"/>
<path fill="#8E55FF" opacity="1.000000" stroke="none" 
	d="
M186.001526,280.716736 
	C179.889114,280.716644 174.276215,280.716644 168.408020,280.716644 
	C168.408020,261.079376 168.408020,242.155136 168.408020,222.830444 
	C187.619431,222.830444 206.673889,222.830444 225.998169,222.830444 
	C225.998169,242.052414 225.998169,260.989929 225.998169,280.716797 
	C212.697647,280.716797 199.599350,280.716797 186.001526,280.716736 
z"/>
</svg>